<mxfile host="app.diagrams.net" agent="Mozilla/5.0 (Windows NT 10.0; Win64; x64) AppleWebKit/537.36 (KHTML, like Gecko) Chrome/127.0.0.0 Safari/537.36" version="24.7.5">
  <diagram name="Página-1" id="gpXIt1gMkoKatsO0pGvc">
    <mxGraphModel dx="756" dy="379" grid="1" gridSize="10" guides="1" tooltips="1" connect="1" arrows="1" fold="1" page="1" pageScale="1" pageWidth="827" pageHeight="1169" math="0" shadow="0">
      <root>
        <mxCell id="0" />
        <mxCell id="1" parent="0" />
        <mxCell id="iu3HMkkXrG-Yye-WrYuM-4" value="" style="edgeStyle=orthogonalEdgeStyle;rounded=0;orthogonalLoop=1;jettySize=auto;html=1;" edge="1" parent="1" source="iu3HMkkXrG-Yye-WrYuM-1" target="iu3HMkkXrG-Yye-WrYuM-3">
          <mxGeometry relative="1" as="geometry" />
        </mxCell>
        <mxCell id="iu3HMkkXrG-Yye-WrYuM-1" value="&lt;font style=&quot;vertical-align: inherit;&quot;&gt;&lt;font style=&quot;vertical-align: inherit;&quot;&gt;INÍCIO&lt;/font&gt;&lt;/font&gt;" style="rounded=1;whiteSpace=wrap;html=1;" vertex="1" parent="1">
          <mxGeometry x="250" y="40" width="80" height="30" as="geometry" />
        </mxCell>
        <mxCell id="iu3HMkkXrG-Yye-WrYuM-2" value="&lt;font style=&quot;vertical-align: inherit;&quot;&gt;&lt;font style=&quot;vertical-align: inherit;&quot;&gt;&lt;font style=&quot;vertical-align: inherit;&quot;&gt;&lt;font style=&quot;vertical-align: inherit;&quot;&gt;FIM&lt;/font&gt;&lt;/font&gt;&lt;/font&gt;&lt;/font&gt;" style="rounded=1;whiteSpace=wrap;html=1;" vertex="1" parent="1">
          <mxGeometry x="250" y="840" width="80" height="30" as="geometry" />
        </mxCell>
        <mxCell id="iu3HMkkXrG-Yye-WrYuM-6" value="" style="edgeStyle=orthogonalEdgeStyle;rounded=0;orthogonalLoop=1;jettySize=auto;html=1;" edge="1" parent="1" source="iu3HMkkXrG-Yye-WrYuM-3" target="iu3HMkkXrG-Yye-WrYuM-5">
          <mxGeometry relative="1" as="geometry" />
        </mxCell>
        <mxCell id="iu3HMkkXrG-Yye-WrYuM-3" value="&lt;div style=&quot;text-align: left;&quot;&gt;&lt;span style=&quot;background-color: initial;&quot;&gt;Inteiro&amp;nbsp; &amp;nbsp;&lt;/span&gt;&lt;/div&gt;&lt;div style=&quot;text-align: left;&quot;&gt;&lt;span style=&quot;background-color: initial; text-align: center;&quot;&gt;&lt;span style=&quot;white-space: pre;&quot;&gt;&#x9;&lt;/span&gt;numeroTab &amp;lt;- 0&amp;nbsp; &amp;nbsp; &lt;span style=&quot;white-space: pre;&quot;&gt;&#x9;&lt;/span&gt;termo &amp;lt;- 0&lt;/span&gt;&lt;/div&gt;&lt;div style=&quot;text-align: left;&quot;&gt;&lt;span style=&quot;background-color: initial; text-align: center;&quot;&gt;&amp;nbsp;&lt;span style=&quot;white-space: pre;&quot;&gt;&#x9;&lt;/span&gt;contador &amp;lt;- 1&lt;/span&gt;&lt;/div&gt;" style="rounded=0;whiteSpace=wrap;html=1;" vertex="1" parent="1">
          <mxGeometry x="231.25" y="100" width="117.5" height="70" as="geometry" />
        </mxCell>
        <mxCell id="iu3HMkkXrG-Yye-WrYuM-8" value="" style="edgeStyle=orthogonalEdgeStyle;rounded=0;orthogonalLoop=1;jettySize=auto;html=1;exitX=0.5;exitY=0.875;exitDx=0;exitDy=0;exitPerimeter=0;" edge="1" parent="1" source="iu3HMkkXrG-Yye-WrYuM-5" target="iu3HMkkXrG-Yye-WrYuM-7">
          <mxGeometry relative="1" as="geometry" />
        </mxCell>
        <mxCell id="iu3HMkkXrG-Yye-WrYuM-5" value="Olá, jovem! Vamos calcular!&amp;nbsp;&lt;span style=&quot;background-color: initial;&quot;&gt;Eu sou bom em tabuadas!&lt;/span&gt;" style="shape=document;whiteSpace=wrap;html=1;boundedLbl=1;" vertex="1" parent="1">
          <mxGeometry x="230" y="200" width="120" height="80" as="geometry" />
        </mxCell>
        <mxCell id="iu3HMkkXrG-Yye-WrYuM-11" value="" style="edgeStyle=orthogonalEdgeStyle;rounded=0;orthogonalLoop=1;jettySize=auto;html=1;" edge="1" parent="1" source="iu3HMkkXrG-Yye-WrYuM-7" target="iu3HMkkXrG-Yye-WrYuM-10">
          <mxGeometry relative="1" as="geometry" />
        </mxCell>
        <mxCell id="iu3HMkkXrG-Yye-WrYuM-7" value="Digite o número que deseja tabular:&lt;div&gt;(numeroTab)&lt;br&gt;&lt;/div&gt;" style="shape=parallelogram;perimeter=parallelogramPerimeter;whiteSpace=wrap;html=1;fixedSize=1;size=20;" vertex="1" parent="1">
          <mxGeometry x="220" y="300" width="140" height="60" as="geometry" />
        </mxCell>
        <mxCell id="iu3HMkkXrG-Yye-WrYuM-17" value="" style="edgeStyle=orthogonalEdgeStyle;rounded=0;orthogonalLoop=1;jettySize=auto;html=1;" edge="1" parent="1" source="iu3HMkkXrG-Yye-WrYuM-10" target="iu3HMkkXrG-Yye-WrYuM-16">
          <mxGeometry relative="1" as="geometry" />
        </mxCell>
        <mxCell id="iu3HMkkXrG-Yye-WrYuM-10" value="(contador &amp;lt;= 10) ?" style="rhombus;whiteSpace=wrap;html=1;" vertex="1" parent="1">
          <mxGeometry x="212.5" y="390" width="155" height="80" as="geometry" />
        </mxCell>
        <mxCell id="iu3HMkkXrG-Yye-WrYuM-12" value="&lt;b&gt;Não&lt;/b&gt;" style="text;html=1;align=center;verticalAlign=middle;whiteSpace=wrap;rounded=0;" vertex="1" parent="1">
          <mxGeometry x="370" y="400" width="60" height="30" as="geometry" />
        </mxCell>
        <mxCell id="iu3HMkkXrG-Yye-WrYuM-13" value="" style="endArrow=classic;html=1;rounded=0;" edge="1" parent="1" target="iu3HMkkXrG-Yye-WrYuM-2">
          <mxGeometry width="50" height="50" relative="1" as="geometry">
            <mxPoint x="367.5" y="430" as="sourcePoint" />
            <mxPoint x="337.5" y="592.5" as="targetPoint" />
            <Array as="points">
              <mxPoint x="480" y="430" />
              <mxPoint x="480" y="860" />
            </Array>
          </mxGeometry>
        </mxCell>
        <mxCell id="iu3HMkkXrG-Yye-WrYuM-14" value="&lt;b&gt;Sim&lt;/b&gt;" style="text;html=1;align=center;verticalAlign=middle;whiteSpace=wrap;rounded=0;" vertex="1" parent="1">
          <mxGeometry x="290" y="480" width="60" height="30" as="geometry" />
        </mxCell>
        <mxCell id="iu3HMkkXrG-Yye-WrYuM-22" value="" style="edgeStyle=orthogonalEdgeStyle;rounded=0;orthogonalLoop=1;jettySize=auto;html=1;" edge="1" parent="1" source="iu3HMkkXrG-Yye-WrYuM-16" target="iu3HMkkXrG-Yye-WrYuM-21">
          <mxGeometry relative="1" as="geometry" />
        </mxCell>
        <mxCell id="iu3HMkkXrG-Yye-WrYuM-16" value="contador &amp;lt;- contador + 1&lt;br&gt;termo &amp;lt;- termo + numeroTab&lt;div&gt;&lt;br&gt;&lt;/div&gt;" style="whiteSpace=wrap;html=1;aspect=fixed;" vertex="1" parent="1">
          <mxGeometry x="210" y="510" width="160" height="160" as="geometry" />
        </mxCell>
        <mxCell id="iu3HMkkXrG-Yye-WrYuM-23" value="" style="edgeStyle=orthogonalEdgeStyle;rounded=0;orthogonalLoop=1;jettySize=auto;html=1;" edge="1" parent="1" target="iu3HMkkXrG-Yye-WrYuM-2">
          <mxGeometry relative="1" as="geometry">
            <mxPoint x="290" y="780" as="sourcePoint" />
          </mxGeometry>
        </mxCell>
        <mxCell id="iu3HMkkXrG-Yye-WrYuM-21" value="&#xa;&lt;span style=&quot;color: rgb(0, 0, 0); font-family: Helvetica; font-size: 12px; font-style: normal; font-variant-ligatures: normal; font-variant-caps: normal; font-weight: 400; letter-spacing: normal; orphans: 2; text-align: center; text-indent: 0px; text-transform: none; widows: 2; word-spacing: 0px; -webkit-text-stroke-width: 0px; white-space: normal; background-color: rgb(251, 251, 251); text-decoration-thickness: initial; text-decoration-style: initial; text-decoration-color: initial; display: inline !important; float: none;&quot;&gt;&amp;nbsp;escreva(termo)&lt;/span&gt;&#xa;&#xa;" style="shape=document;whiteSpace=wrap;html=1;boundedLbl=1;" vertex="1" parent="1">
          <mxGeometry x="230" y="720" width="120" height="80" as="geometry" />
        </mxCell>
      </root>
    </mxGraphModel>
  </diagram>
</mxfile>
